<svg width="258" height="263" viewBox="0 0 258 263" fill="none" xmlns="http://www.w3.org/2000/svg">
<g filter="url(#filter0_d_0:1)">
<rect width="258" height="263" rx="5" fill="#282D30"/>
</g>
<path d="M51.5577 86.2887L129 41.5774L206.442 86.2887V175.711L129 220.423L51.5577 175.711V86.2887Z" stroke="white"/>
<path d="M71.5433 97.0387L129.5 63.5774L187.457 97.0387V163.961L129.5 197.423L71.5433 163.961V97.0387Z" stroke="white"/>
<path d="M90.5289 108.789L129 86.5774L167.471 108.789V153.211L129 175.423L90.5289 153.211V108.789Z" stroke="white"/>
<path d="M110.514 119.539L129.5 108.577L148.486 119.539V141.461L129.5 152.423L110.514 141.461V119.539Z" stroke="white"/>
<path d="M120.007 125.914L129.25 120.577L138.493 125.914V136.586L129.25 141.923L120.007 136.586V125.914Z" stroke="white"/>
<path d="M13.8223 85.2227C13.7363 86.1328 13.4004 86.8438 12.8145 87.3555C12.2285 87.8633 11.4492 88.1172 10.4766 88.1172C9.79688 88.1172 9.19727 87.957 8.67773 87.6367C8.16211 87.3125 7.76367 86.8535 7.48242 86.2598C7.20117 85.666 7.05469 84.9766 7.04297 84.1914V83.3945C7.04297 82.5898 7.18555 81.8809 7.4707 81.2676C7.75586 80.6543 8.16406 80.1816 8.69531 79.8496C9.23047 79.5176 9.84766 79.3516 10.5469 79.3516C11.4883 79.3516 12.2461 79.6074 12.8203 80.1191C13.3945 80.6309 13.7285 81.3535 13.8223 82.2871H12.3457C12.2754 81.6738 12.0957 81.2324 11.8066 80.9629C11.5215 80.6895 11.1016 80.5527 10.5469 80.5527C9.90234 80.5527 9.40625 80.7891 9.05859 81.2617C8.71484 81.7305 8.53906 82.4199 8.53125 83.3301V84.0859C8.53125 85.0078 8.69531 85.7109 9.02344 86.1953C9.35547 86.6797 9.83984 86.9219 10.4766 86.9219C11.0586 86.9219 11.4961 86.791 11.7891 86.5293C12.082 86.2676 12.2676 85.832 12.3457 85.2227H13.8223ZM18.8027 88C18.7402 87.8789 18.6855 87.6816 18.6387 87.4082C18.1855 87.8809 17.6309 88.1172 16.9746 88.1172C16.3379 88.1172 15.8184 87.9355 15.416 87.5723C15.0137 87.209 14.8125 86.7598 14.8125 86.2246C14.8125 85.5488 15.0625 85.0312 15.5625 84.6719C16.0664 84.3086 16.7852 84.127 17.7188 84.127H18.5918V83.7109C18.5918 83.3828 18.5 83.1211 18.3164 82.9258C18.1328 82.7266 17.8535 82.627 17.4785 82.627C17.1543 82.627 16.8887 82.709 16.6816 82.873C16.4746 83.0332 16.3711 83.2383 16.3711 83.4883H14.9473C14.9473 83.1406 15.0625 82.8164 15.293 82.5156C15.5234 82.2109 15.8359 81.9727 16.2305 81.8008C16.6289 81.6289 17.0723 81.543 17.5605 81.543C18.3027 81.543 18.8945 81.7305 19.3359 82.1055C19.7773 82.4766 20.0039 83 20.0156 83.6758V86.5352C20.0156 87.1055 20.0957 87.5605 20.2559 87.9004V88H18.8027ZM17.2383 86.9746C17.5195 86.9746 17.7832 86.9062 18.0293 86.7695C18.2793 86.6328 18.4668 86.4492 18.5918 86.2188V85.0234H17.8242C17.2969 85.0234 16.9004 85.1152 16.6348 85.2988C16.3691 85.4824 16.2363 85.7422 16.2363 86.0781C16.2363 86.3516 16.3262 86.5703 16.5059 86.7344C16.6895 86.8945 16.9336 86.9746 17.2383 86.9746ZM24.8262 82.9609C24.6387 82.9297 24.4453 82.9141 24.2461 82.9141C23.5938 82.9141 23.1543 83.1641 22.9277 83.6641V88H21.5039V81.6602H22.8633L22.8984 82.3691C23.2422 81.8184 23.7188 81.543 24.3281 81.543C24.5312 81.543 24.6992 81.5703 24.832 81.625L24.8262 82.9609ZM25.3418 84.7832C25.3418 83.8066 25.5684 83.0234 26.0215 82.4336C26.4746 81.8398 27.082 81.543 27.8438 81.543C28.5156 81.543 29.0586 81.7773 29.4727 82.2461V79H30.8965V88H29.6074L29.5371 87.3438C29.1113 87.8594 28.543 88.1172 27.832 88.1172C27.0898 88.1172 26.4883 87.8184 26.0273 87.2207C25.5703 86.623 25.3418 85.8105 25.3418 84.7832ZM26.7656 84.9062C26.7656 85.5508 26.8887 86.0547 27.1348 86.418C27.3848 86.7773 27.7383 86.957 28.1953 86.957C28.7773 86.957 29.2031 86.6973 29.4727 86.1777V83.4707C29.2109 82.9629 28.7891 82.709 28.207 82.709C27.7461 82.709 27.3906 82.8926 27.1406 83.2598C26.8906 83.623 26.7656 84.1719 26.7656 84.9062ZM33.8965 88H32.4727V81.6602H33.8965V88ZM32.3848 80.0137C32.3848 79.7949 32.4531 79.6133 32.5898 79.4688C32.7305 79.3242 32.9297 79.252 33.1875 79.252C33.4453 79.252 33.6445 79.3242 33.7852 79.4688C33.9258 79.6133 33.9961 79.7949 33.9961 80.0137C33.9961 80.2285 33.9258 80.4082 33.7852 80.5527C33.6445 80.6934 33.4453 80.7637 33.1875 80.7637C32.9297 80.7637 32.7305 80.6934 32.5898 80.5527C32.4531 80.4082 32.3848 80.2285 32.3848 80.0137ZM35.1855 84.7715C35.1855 84.1504 35.3086 83.5918 35.5547 83.0957C35.8008 82.5957 36.1465 82.2129 36.5918 81.9473C37.0371 81.6777 37.5488 81.543 38.127 81.543C38.9824 81.543 39.6758 81.8184 40.207 82.3691C40.7422 82.9199 41.0312 83.6504 41.0742 84.5605L41.0801 84.8945C41.0801 85.5195 40.959 86.0781 40.7168 86.5703C40.4785 87.0625 40.1348 87.4434 39.6855 87.7129C39.2402 87.9824 38.7246 88.1172 38.1387 88.1172C37.2441 88.1172 36.5273 87.8203 35.9883 87.2266C35.4531 86.6289 35.1855 85.834 35.1855 84.8418V84.7715ZM36.6094 84.8945C36.6094 85.5469 36.7441 86.0586 37.0137 86.4297C37.2832 86.7969 37.6582 86.9805 38.1387 86.9805C38.6191 86.9805 38.9922 86.793 39.2578 86.418C39.5273 86.043 39.6621 85.4941 39.6621 84.7715C39.6621 84.1309 39.5234 83.623 39.2461 83.248C38.9727 82.873 38.5996 82.6855 38.127 82.6855C37.6621 82.6855 37.293 82.8711 37.0195 83.2422C36.7461 83.6094 36.6094 84.1602 36.6094 84.8945Z" fill="white"/>
<path d="M216.311 88.1426L218.479 81.4688H220.107L217.037 90H215.602L212.543 81.4688H214.166L216.311 88.1426ZM222.451 90H221.027V83.6602H222.451V90ZM220.939 82.0137C220.939 81.7949 221.008 81.6133 221.145 81.4688C221.285 81.3242 221.484 81.252 221.742 81.252C222 81.252 222.199 81.3242 222.34 81.4688C222.48 81.6133 222.551 81.7949 222.551 82.0137C222.551 82.2285 222.48 82.4082 222.34 82.5527C222.199 82.6934 222 82.7637 221.742 82.7637C221.484 82.7637 221.285 82.6934 221.145 82.5527C221.008 82.4082 220.939 82.2285 220.939 82.0137ZM225.791 82.1191V83.6602H226.91V84.7148H225.791V88.2539C225.791 88.4961 225.838 88.6719 225.932 88.7812C226.029 88.8867 226.201 88.9395 226.447 88.9395C226.611 88.9395 226.777 88.9199 226.945 88.8809V89.9824C226.621 90.0723 226.309 90.1172 226.008 90.1172C224.914 90.1172 224.367 89.5137 224.367 88.3066V84.7148H223.324V83.6602H224.367V82.1191H225.791ZM230.795 90.1172C229.893 90.1172 229.16 89.834 228.598 89.2676C228.039 88.6973 227.76 87.9395 227.76 86.9941V86.8184C227.76 86.1855 227.881 85.6211 228.123 85.125C228.369 84.625 228.713 84.2363 229.154 83.959C229.596 83.6816 230.088 83.543 230.631 83.543C231.494 83.543 232.16 83.8184 232.629 84.3691C233.102 84.9199 233.338 85.6992 233.338 86.707V87.2812H229.195C229.238 87.8047 229.412 88.2188 229.717 88.5234C230.025 88.8281 230.412 88.9805 230.877 88.9805C231.529 88.9805 232.061 88.7168 232.471 88.1895L233.238 88.9219C232.984 89.3008 232.645 89.5957 232.219 89.8066C231.797 90.0137 231.322 90.1172 230.795 90.1172ZM230.625 84.6855C230.234 84.6855 229.918 84.8223 229.676 85.0957C229.438 85.3691 229.285 85.75 229.219 86.2383H231.932V86.1328C231.9 85.6562 231.773 85.2969 231.551 85.0547C231.328 84.8086 231.02 84.6855 230.625 84.6855ZM238.002 88.2773C238.002 88.0234 237.896 87.8301 237.686 87.6973C237.479 87.5645 237.133 87.4473 236.648 87.3457C236.164 87.2441 235.76 87.1152 235.436 86.959C234.725 86.6152 234.369 86.1172 234.369 85.4648C234.369 84.918 234.6 84.4609 235.061 84.0938C235.521 83.7266 236.107 83.543 236.818 83.543C237.576 83.543 238.188 83.7305 238.652 84.1055C239.121 84.4805 239.355 84.9668 239.355 85.5645H237.932C237.932 85.291 237.83 85.0645 237.627 84.8848C237.424 84.7012 237.154 84.6094 236.818 84.6094C236.506 84.6094 236.25 84.6816 236.051 84.8262C235.855 84.9707 235.758 85.1641 235.758 85.4062C235.758 85.625 235.85 85.7949 236.033 85.916C236.217 86.0371 236.588 86.1602 237.146 86.2852C237.705 86.4062 238.143 86.5527 238.459 86.7246C238.779 86.8926 239.016 87.0957 239.168 87.334C239.324 87.5723 239.402 87.8613 239.402 88.2012C239.402 88.7715 239.166 89.2344 238.693 89.5898C238.221 89.9414 237.602 90.1172 236.836 90.1172C236.316 90.1172 235.854 90.0234 235.447 89.8359C235.041 89.6484 234.725 89.3906 234.498 89.0625C234.271 88.7344 234.158 88.3809 234.158 88.002H235.541C235.561 88.3379 235.688 88.5977 235.922 88.7812C236.156 88.9609 236.467 89.0508 236.854 89.0508C237.229 89.0508 237.514 88.9805 237.709 88.8398C237.904 88.6953 238.002 88.5078 238.002 88.2773ZM244.201 88.2773C244.201 88.0234 244.096 87.8301 243.885 87.6973C243.678 87.5645 243.332 87.4473 242.848 87.3457C242.363 87.2441 241.959 87.1152 241.635 86.959C240.924 86.6152 240.568 86.1172 240.568 85.4648C240.568 84.918 240.799 84.4609 241.26 84.0938C241.721 83.7266 242.307 83.543 243.018 83.543C243.775 83.543 244.387 83.7305 244.852 84.1055C245.32 84.4805 245.555 84.9668 245.555 85.5645H244.131C244.131 85.291 244.029 85.0645 243.826 84.8848C243.623 84.7012 243.354 84.6094 243.018 84.6094C242.705 84.6094 242.449 84.6816 242.25 84.8262C242.055 84.9707 241.957 85.1641 241.957 85.4062C241.957 85.625 242.049 85.7949 242.232 85.916C242.416 86.0371 242.787 86.1602 243.346 86.2852C243.904 86.4062 244.342 86.5527 244.658 86.7246C244.979 86.8926 245.215 87.0957 245.367 87.334C245.523 87.5723 245.602 87.8613 245.602 88.2012C245.602 88.7715 245.365 89.2344 244.893 89.5898C244.42 89.9414 243.801 90.1172 243.035 90.1172C242.516 90.1172 242.053 90.0234 241.646 89.8359C241.24 89.6484 240.924 89.3906 240.697 89.0625C240.471 88.7344 240.357 88.3809 240.357 88.002H241.74C241.76 88.3379 241.887 88.5977 242.121 88.7812C242.355 88.9609 242.666 89.0508 243.053 89.0508C243.428 89.0508 243.713 88.9805 243.908 88.8398C244.104 88.6953 244.201 88.5078 244.201 88.2773ZM249.639 90.1172C248.736 90.1172 248.004 89.834 247.441 89.2676C246.883 88.6973 246.604 87.9395 246.604 86.9941V86.8184C246.604 86.1855 246.725 85.6211 246.967 85.125C247.213 84.625 247.557 84.2363 247.998 83.959C248.439 83.6816 248.932 83.543 249.475 83.543C250.338 83.543 251.004 83.8184 251.473 84.3691C251.945 84.9199 252.182 85.6992 252.182 86.707V87.2812H248.039C248.082 87.8047 248.256 88.2188 248.561 88.5234C248.869 88.8281 249.256 88.9805 249.721 88.9805C250.373 88.9805 250.904 88.7168 251.314 88.1895L252.082 88.9219C251.828 89.3008 251.488 89.5957 251.062 89.8066C250.641 90.0137 250.166 90.1172 249.639 90.1172ZM249.469 84.6855C249.078 84.6855 248.762 84.8223 248.52 85.0957C248.281 85.3691 248.129 85.75 248.062 86.2383H250.775V86.1328C250.744 85.6562 250.617 85.2969 250.395 85.0547C250.172 84.8086 249.863 84.6855 249.469 84.6855Z" fill="white"/>
<path d="M106.854 238.191H103.35V240.816H107.445V242H101.867V233.469H107.404V234.664H103.35V237.02H106.854V238.191ZM109.836 235.66L109.877 236.393C110.346 235.826 110.961 235.543 111.723 235.543C113.043 235.543 113.715 236.299 113.738 237.811V242H112.314V237.893C112.314 237.49 112.227 237.193 112.051 237.002C111.879 236.807 111.596 236.709 111.201 236.709C110.627 236.709 110.199 236.969 109.918 237.488V242H108.494V235.66H109.836ZM114.928 238.783C114.928 237.807 115.154 237.023 115.607 236.434C116.061 235.84 116.668 235.543 117.43 235.543C118.102 235.543 118.645 235.777 119.059 236.246V233H120.482V242H119.193L119.123 241.344C118.697 241.859 118.129 242.117 117.418 242.117C116.676 242.117 116.074 241.818 115.613 241.221C115.156 240.623 114.928 239.811 114.928 238.783ZM116.352 238.906C116.352 239.551 116.475 240.055 116.721 240.418C116.971 240.777 117.324 240.957 117.781 240.957C118.363 240.957 118.789 240.697 119.059 240.178V237.471C118.797 236.963 118.375 236.709 117.793 236.709C117.332 236.709 116.977 236.893 116.727 237.26C116.477 237.623 116.352 238.172 116.352 238.906ZM125.809 241.379C125.391 241.871 124.797 242.117 124.027 242.117C123.34 242.117 122.818 241.916 122.463 241.514C122.111 241.111 121.936 240.529 121.936 239.768V235.66H123.359V239.75C123.359 240.555 123.693 240.957 124.361 240.957C125.053 240.957 125.52 240.709 125.762 240.213V235.66H127.186V242H125.844L125.809 241.379ZM131.955 236.961C131.768 236.93 131.574 236.914 131.375 236.914C130.723 236.914 130.283 237.164 130.057 237.664V242H128.633V235.66H129.992L130.027 236.369C130.371 235.818 130.848 235.543 131.457 235.543C131.66 235.543 131.828 235.57 131.961 235.625L131.955 236.961ZM136.467 242C136.404 241.879 136.35 241.682 136.303 241.408C135.85 241.881 135.295 242.117 134.639 242.117C134.002 242.117 133.482 241.936 133.08 241.572C132.678 241.209 132.477 240.76 132.477 240.225C132.477 239.549 132.727 239.031 133.227 238.672C133.73 238.309 134.449 238.127 135.383 238.127H136.256V237.711C136.256 237.383 136.164 237.121 135.98 236.926C135.797 236.727 135.518 236.627 135.143 236.627C134.818 236.627 134.553 236.709 134.346 236.873C134.139 237.033 134.035 237.238 134.035 237.488H132.611C132.611 237.141 132.727 236.816 132.957 236.516C133.188 236.211 133.5 235.973 133.895 235.801C134.293 235.629 134.736 235.543 135.225 235.543C135.967 235.543 136.559 235.73 137 236.105C137.441 236.477 137.668 237 137.68 237.676V240.535C137.68 241.105 137.76 241.561 137.92 241.9V242H136.467ZM134.902 240.975C135.184 240.975 135.447 240.906 135.693 240.77C135.943 240.633 136.131 240.449 136.256 240.219V239.023H135.488C134.961 239.023 134.564 239.115 134.299 239.299C134.033 239.482 133.9 239.742 133.9 240.078C133.9 240.352 133.99 240.57 134.17 240.734C134.354 240.895 134.598 240.975 134.902 240.975ZM140.492 235.66L140.533 236.393C141.002 235.826 141.617 235.543 142.379 235.543C143.699 235.543 144.371 236.299 144.395 237.811V242H142.971V237.893C142.971 237.49 142.883 237.193 142.707 237.002C142.535 236.807 142.252 236.709 141.857 236.709C141.283 236.709 140.855 236.969 140.574 237.488V242H139.15V235.66H140.492ZM148.455 240.98C148.811 240.98 149.105 240.877 149.34 240.67C149.574 240.463 149.699 240.207 149.715 239.902H151.057C151.041 240.297 150.918 240.666 150.688 241.01C150.457 241.35 150.145 241.619 149.75 241.818C149.355 242.018 148.93 242.117 148.473 242.117C147.586 242.117 146.883 241.83 146.363 241.256C145.844 240.682 145.584 239.889 145.584 238.877V238.73C145.584 237.766 145.842 236.994 146.357 236.416C146.873 235.834 147.576 235.543 148.467 235.543C149.221 235.543 149.834 235.764 150.307 236.205C150.783 236.643 151.033 237.219 151.057 237.934H149.715C149.699 237.57 149.574 237.271 149.34 237.037C149.109 236.803 148.814 236.686 148.455 236.686C147.994 236.686 147.639 236.854 147.389 237.189C147.139 237.521 147.012 238.027 147.008 238.707V238.936C147.008 239.623 147.131 240.137 147.377 240.477C147.627 240.812 147.986 240.98 148.455 240.98ZM154.924 242.117C154.021 242.117 153.289 241.834 152.727 241.268C152.168 240.697 151.889 239.939 151.889 238.994V238.818C151.889 238.186 152.01 237.621 152.252 237.125C152.498 236.625 152.842 236.236 153.283 235.959C153.725 235.682 154.217 235.543 154.76 235.543C155.623 235.543 156.289 235.818 156.758 236.369C157.23 236.92 157.467 237.699 157.467 238.707V239.281H153.324C153.367 239.805 153.541 240.219 153.846 240.523C154.154 240.828 154.541 240.98 155.006 240.98C155.658 240.98 156.189 240.717 156.6 240.189L157.367 240.922C157.113 241.301 156.773 241.596 156.348 241.807C155.926 242.014 155.451 242.117 154.924 242.117ZM154.754 236.686C154.363 236.686 154.047 236.822 153.805 237.096C153.566 237.369 153.414 237.75 153.348 238.238H156.061V238.133C156.029 237.656 155.902 237.297 155.68 237.055C155.457 236.809 155.148 236.686 154.754 236.686Z" fill="white"/>
<path d="M108.533 28H107.057V19.4688H108.533V28ZM111.539 21.6602L111.58 22.3926C112.049 21.8262 112.664 21.543 113.426 21.543C114.746 21.543 115.418 22.2988 115.441 23.8105V28H114.018V23.8926C114.018 23.4902 113.93 23.1934 113.754 23.002C113.582 22.8066 113.299 22.709 112.904 22.709C112.33 22.709 111.902 22.9688 111.621 23.4883V28H110.197V21.6602H111.539ZM118.682 20.1191V21.6602H119.801V22.7148H118.682V26.2539C118.682 26.4961 118.729 26.6719 118.822 26.7812C118.92 26.8867 119.092 26.9395 119.338 26.9395C119.502 26.9395 119.668 26.9199 119.836 26.8809V27.9824C119.512 28.0723 119.199 28.1172 118.898 28.1172C117.805 28.1172 117.258 27.5137 117.258 26.3066V22.7148H116.215V21.6602H117.258V20.1191H118.682ZM123.686 28.1172C122.783 28.1172 122.051 27.834 121.488 27.2676C120.93 26.6973 120.65 25.9395 120.65 24.9941V24.8184C120.65 24.1855 120.771 23.6211 121.014 23.125C121.26 22.625 121.604 22.2363 122.045 21.959C122.486 21.6816 122.979 21.543 123.521 21.543C124.385 21.543 125.051 21.8184 125.52 22.3691C125.992 22.9199 126.229 23.6992 126.229 24.707V25.2812H122.086C122.129 25.8047 122.303 26.2188 122.607 26.5234C122.916 26.8281 123.303 26.9805 123.768 26.9805C124.42 26.9805 124.951 26.7168 125.361 26.1895L126.129 26.9219C125.875 27.3008 125.535 27.5957 125.109 27.8066C124.688 28.0137 124.213 28.1172 123.686 28.1172ZM123.516 22.6855C123.125 22.6855 122.809 22.8223 122.566 23.0957C122.328 23.3691 122.176 23.75 122.109 24.2383H124.822V24.1328C124.791 23.6562 124.664 23.2969 124.441 23.0547C124.219 22.8086 123.91 22.6855 123.516 22.6855ZM128.66 21.6602L128.701 22.3926C129.17 21.8262 129.785 21.543 130.547 21.543C131.867 21.543 132.539 22.2988 132.562 23.8105V28H131.139V23.8926C131.139 23.4902 131.051 23.1934 130.875 23.002C130.703 22.8066 130.42 22.709 130.025 22.709C129.451 22.709 129.023 22.9688 128.742 23.4883V28H127.318V21.6602H128.66ZM137.572 26.2773C137.572 26.0234 137.467 25.8301 137.256 25.6973C137.049 25.5645 136.703 25.4473 136.219 25.3457C135.734 25.2441 135.33 25.1152 135.006 24.959C134.295 24.6152 133.939 24.1172 133.939 23.4648C133.939 22.918 134.17 22.4609 134.631 22.0938C135.092 21.7266 135.678 21.543 136.389 21.543C137.146 21.543 137.758 21.7305 138.223 22.1055C138.691 22.4805 138.926 22.9668 138.926 23.5645H137.502C137.502 23.291 137.4 23.0645 137.197 22.8848C136.994 22.7012 136.725 22.6094 136.389 22.6094C136.076 22.6094 135.82 22.6816 135.621 22.8262C135.426 22.9707 135.328 23.1641 135.328 23.4062C135.328 23.625 135.42 23.7949 135.604 23.916C135.787 24.0371 136.158 24.1602 136.717 24.2852C137.275 24.4062 137.713 24.5527 138.029 24.7246C138.35 24.8926 138.586 25.0957 138.738 25.334C138.895 25.5723 138.973 25.8613 138.973 26.2012C138.973 26.7715 138.736 27.2344 138.264 27.5898C137.791 27.9414 137.172 28.1172 136.406 28.1172C135.887 28.1172 135.424 28.0234 135.018 27.8359C134.611 27.6484 134.295 27.3906 134.068 27.0625C133.842 26.7344 133.729 26.3809 133.729 26.002H135.111C135.131 26.3379 135.258 26.5977 135.492 26.7812C135.727 26.9609 136.037 27.0508 136.424 27.0508C136.799 27.0508 137.084 26.9805 137.279 26.8398C137.475 26.6953 137.572 26.5078 137.572 26.2773ZM141.732 28H140.309V21.6602H141.732V28ZM140.221 20.0137C140.221 19.7949 140.289 19.6133 140.426 19.4688C140.566 19.3242 140.766 19.252 141.023 19.252C141.281 19.252 141.48 19.3242 141.621 19.4688C141.762 19.6133 141.832 19.7949 141.832 20.0137C141.832 20.2285 141.762 20.4082 141.621 20.5527C141.48 20.6934 141.281 20.7637 141.023 20.7637C140.766 20.7637 140.566 20.6934 140.426 20.5527C140.289 20.4082 140.221 20.2285 140.221 20.0137ZM145.072 20.1191V21.6602H146.191V22.7148H145.072V26.2539C145.072 26.4961 145.119 26.6719 145.213 26.7812C145.311 26.8867 145.482 26.9395 145.729 26.9395C145.893 26.9395 146.059 26.9199 146.227 26.8809V27.9824C145.902 28.0723 145.59 28.1172 145.289 28.1172C144.195 28.1172 143.648 27.5137 143.648 26.3066V22.7148H142.605V21.6602H143.648V20.1191H145.072ZM150.076 28.1172C149.174 28.1172 148.441 27.834 147.879 27.2676C147.32 26.6973 147.041 25.9395 147.041 24.9941V24.8184C147.041 24.1855 147.162 23.6211 147.404 23.125C147.65 22.625 147.994 22.2363 148.436 21.959C148.877 21.6816 149.369 21.543 149.912 21.543C150.775 21.543 151.441 21.8184 151.91 22.3691C152.383 22.9199 152.619 23.6992 152.619 24.707V25.2812H148.477C148.52 25.8047 148.693 26.2188 148.998 26.5234C149.307 26.8281 149.693 26.9805 150.158 26.9805C150.811 26.9805 151.342 26.7168 151.752 26.1895L152.52 26.9219C152.266 27.3008 151.926 27.5957 151.5 27.8066C151.078 28.0137 150.604 28.1172 150.076 28.1172ZM149.906 22.6855C149.516 22.6855 149.199 22.8223 148.957 23.0957C148.719 23.3691 148.566 23.75 148.5 24.2383H151.213V24.1328C151.182 23.6562 151.055 23.2969 150.832 23.0547C150.609 22.8086 150.301 22.6855 149.906 22.6855ZM150.229 19H151.852L150.229 20.7754H149.086L150.229 19Z" fill="white"/>
<path d="M11.5176 182.191H8.01367V184.816H12.1094V186H6.53125V177.469H12.0684V178.664H8.01367V181.02H11.5176V182.191ZM14.5 179.66L14.541 180.393C15.0098 179.826 15.625 179.543 16.3867 179.543C17.707 179.543 18.3789 180.299 18.4023 181.811V186H16.9785V181.893C16.9785 181.49 16.8906 181.193 16.7148 181.002C16.543 180.807 16.2598 180.709 15.8652 180.709C15.291 180.709 14.8633 180.969 14.582 181.488V186H13.1582V179.66H14.5ZM22.6504 186.117C21.748 186.117 21.0156 185.834 20.4531 185.268C19.8945 184.697 19.6152 183.939 19.6152 182.994V182.818C19.6152 182.186 19.7363 181.621 19.9785 181.125C20.2246 180.625 20.5684 180.236 21.0098 179.959C21.4512 179.682 21.9434 179.543 22.4863 179.543C23.3496 179.543 24.0156 179.818 24.4844 180.369C24.957 180.92 25.1934 181.699 25.1934 182.707V183.281H21.0508C21.0938 183.805 21.2676 184.219 21.5723 184.523C21.8809 184.828 22.2676 184.98 22.7324 184.98C23.3848 184.98 23.916 184.717 24.3262 184.189L25.0938 184.922C24.8398 185.301 24.5 185.596 24.0742 185.807C23.6523 186.014 23.1777 186.117 22.6504 186.117ZM22.4805 180.686C22.0898 180.686 21.7734 180.822 21.5312 181.096C21.293 181.369 21.1406 181.75 21.0742 182.238H23.7871V182.133C23.7559 181.656 23.6289 181.297 23.4062 181.055C23.1836 180.809 22.875 180.686 22.4805 180.686ZM29.623 180.961C29.4355 180.93 29.2422 180.914 29.043 180.914C28.3906 180.914 27.9512 181.164 27.7246 181.664V186H26.3008V179.66H27.6602L27.6953 180.369C28.0391 179.818 28.5156 179.543 29.125 179.543C29.3281 179.543 29.4961 179.57 29.6289 179.625L29.623 180.961ZM30.1562 182.783C30.1562 181.799 30.3867 181.014 30.8477 180.428C31.3125 179.838 31.9277 179.543 32.6934 179.543C33.416 179.543 33.9844 179.795 34.3984 180.299L34.4629 179.66H35.7461V185.807C35.7461 186.639 35.4863 187.295 34.9668 187.775C34.4512 188.256 33.7539 188.496 32.875 188.496C32.4102 188.496 31.9551 188.398 31.5098 188.203C31.0684 188.012 30.7324 187.76 30.502 187.447L31.1758 186.592C31.6133 187.111 32.1523 187.371 32.793 187.371C33.2656 187.371 33.6387 187.242 33.9121 186.984C34.1855 186.73 34.3223 186.355 34.3223 185.859V185.432C33.9121 185.889 33.3652 186.117 32.6816 186.117C31.9395 186.117 31.332 185.822 30.8594 185.232C30.3906 184.643 30.1562 183.826 30.1562 182.783ZM31.5742 182.906C31.5742 183.543 31.7031 184.045 31.9609 184.412C32.2227 184.775 32.584 184.957 33.0449 184.957C33.6191 184.957 34.0449 184.711 34.3223 184.219V181.43C34.0527 180.949 33.6309 180.709 33.0566 180.709C32.5879 180.709 32.2227 180.895 31.9609 181.266C31.7031 181.637 31.5742 182.184 31.5742 182.906ZM38.7285 186H37.3047V179.66H38.7285V186ZM37.2168 178.014C37.2168 177.795 37.2852 177.613 37.4219 177.469C37.5625 177.324 37.7617 177.252 38.0195 177.252C38.2773 177.252 38.4766 177.324 38.6172 177.469C38.7578 177.613 38.8281 177.795 38.8281 178.014C38.8281 178.229 38.7578 178.408 38.6172 178.553C38.4766 178.693 38.2773 178.764 38.0195 178.764C37.7617 178.764 37.5625 178.693 37.4219 178.553C37.2852 178.408 37.2168 178.229 37.2168 178.014ZM43.0762 186.117C42.1738 186.117 41.4414 185.834 40.8789 185.268C40.3203 184.697 40.041 183.939 40.041 182.994V182.818C40.041 182.186 40.1621 181.621 40.4043 181.125C40.6504 180.625 40.9941 180.236 41.4355 179.959C41.877 179.682 42.3691 179.543 42.9121 179.543C43.7754 179.543 44.4414 179.818 44.9102 180.369C45.3828 180.92 45.6191 181.699 45.6191 182.707V183.281H41.4766C41.5195 183.805 41.6934 184.219 41.998 184.523C42.3066 184.828 42.6934 184.98 43.1582 184.98C43.8105 184.98 44.3418 184.717 44.752 184.189L45.5195 184.922C45.2656 185.301 44.9258 185.596 44.5 185.807C44.0781 186.014 43.6035 186.117 43.0762 186.117ZM42.9062 180.686C42.5156 180.686 42.1992 180.822 41.957 181.096C41.7188 181.369 41.5664 181.75 41.5 182.238H44.2129V182.133C44.1816 181.656 44.0547 181.297 43.832 181.055C43.6094 180.809 43.3008 180.686 42.9062 180.686Z" fill="white"/>
<path d="M216.783 182.385H213.35V186H211.867V177.469H217.287V178.664H213.35V181.201H216.783V182.385ZM217.932 182.771C217.932 182.15 218.055 181.592 218.301 181.096C218.547 180.596 218.893 180.213 219.338 179.947C219.783 179.678 220.295 179.543 220.873 179.543C221.729 179.543 222.422 179.818 222.953 180.369C223.488 180.92 223.777 181.65 223.82 182.561L223.826 182.895C223.826 183.52 223.705 184.078 223.463 184.57C223.225 185.062 222.881 185.443 222.432 185.713C221.986 185.982 221.471 186.117 220.885 186.117C219.99 186.117 219.273 185.82 218.734 185.227C218.199 184.629 217.932 183.834 217.932 182.842V182.771ZM219.355 182.895C219.355 183.547 219.49 184.059 219.76 184.43C220.029 184.797 220.404 184.98 220.885 184.98C221.365 184.98 221.738 184.793 222.004 184.418C222.273 184.043 222.408 183.494 222.408 182.771C222.408 182.131 222.27 181.623 221.992 181.248C221.719 180.873 221.346 180.686 220.873 180.686C220.408 180.686 220.039 180.871 219.766 181.242C219.492 181.609 219.355 182.16 219.355 182.895ZM228.35 180.961C228.162 180.93 227.969 180.914 227.77 180.914C227.117 180.914 226.678 181.164 226.451 181.664V186H225.027V179.66H226.387L226.422 180.369C226.766 179.818 227.242 179.543 227.852 179.543C228.055 179.543 228.223 179.57 228.355 179.625L228.35 180.961ZM231.736 184.98C232.092 184.98 232.387 184.877 232.621 184.67C232.855 184.463 232.98 184.207 232.996 183.902H234.338C234.322 184.297 234.199 184.666 233.969 185.01C233.738 185.35 233.426 185.619 233.031 185.818C232.637 186.018 232.211 186.117 231.754 186.117C230.867 186.117 230.164 185.83 229.645 185.256C229.125 184.682 228.865 183.889 228.865 182.877V182.73C228.865 181.766 229.123 180.994 229.639 180.416C230.154 179.834 230.857 179.543 231.748 179.543C232.502 179.543 233.115 179.764 233.588 180.205C234.064 180.643 234.314 181.219 234.338 181.934H232.996C232.98 181.57 232.855 181.271 232.621 181.037C232.391 180.803 232.096 180.686 231.736 180.686C231.275 180.686 230.92 180.854 230.67 181.189C230.42 181.521 230.293 182.027 230.289 182.707V182.936C230.289 183.623 230.412 184.137 230.658 184.477C230.908 184.812 231.268 184.98 231.736 184.98ZM238.205 186.117C237.303 186.117 236.57 185.834 236.008 185.268C235.449 184.697 235.17 183.939 235.17 182.994V182.818C235.17 182.186 235.291 181.621 235.533 181.125C235.779 180.625 236.123 180.236 236.564 179.959C237.006 179.682 237.498 179.543 238.041 179.543C238.904 179.543 239.57 179.818 240.039 180.369C240.512 180.92 240.748 181.699 240.748 182.707V183.281H236.605C236.648 183.805 236.822 184.219 237.127 184.523C237.436 184.828 237.822 184.98 238.287 184.98C238.939 184.98 239.471 184.717 239.881 184.189L240.648 184.922C240.395 185.301 240.055 185.596 239.629 185.807C239.207 186.014 238.732 186.117 238.205 186.117ZM238.035 180.686C237.645 180.686 237.328 180.822 237.086 181.096C236.848 181.369 236.695 181.75 236.629 182.238H239.342V182.133C239.311 181.656 239.184 181.297 238.961 181.055C238.738 180.809 238.43 180.686 238.035 180.686Z" fill="white"/>
<defs>
<filter id="filter0_d_0:1" x="-4" y="-2" width="266" height="271" filterUnits="userSpaceOnUse" color-interpolation-filters="sRGB">
<feFlood flood-opacity="0" result="BackgroundImageFix"/>
<feColorMatrix in="SourceAlpha" type="matrix" values="0 0 0 0 0 0 0 0 0 0 0 0 0 0 0 0 0 0 127 0" result="hardAlpha"/>
<feOffset dy="2"/>
<feGaussianBlur stdDeviation="2"/>
<feColorMatrix type="matrix" values="0 0 0 0 0 0 0 0 0 0 0 0 0 0 0 0 0 0 0.0212249 0"/>
<feBlend mode="normal" in2="BackgroundImageFix" result="effect1_dropShadow_0:1"/>
<feBlend mode="normal" in="SourceGraphic" in2="effect1_dropShadow_0:1" result="shape"/>
</filter>
</defs>
</svg>
